<svg xmlns="http://www.w3.org/2000/svg" width="256" height="256" viewBox="0 0 256 256">
  <defs>
    <linearGradient id="bg" x1="0" y1="0" x2="1" y2="1">
      <stop offset="0" stop-color="#1C6DD0"/>
      <stop offset="1" stop-color="#17B0A0"/>
    </linearGradient>
  </defs>
  <rect width="256" height="256" rx="52" fill="url(#bg)"/>
  <!-- house (Home Assistant target) -->
  <g fill="none" stroke="#FFFFFF" stroke-width="12" stroke-linejoin="round" stroke-linecap="round">
    <path d="M150 96 l40 34 v58 a6 6 0 0 1 -6 6 h-68 a6 6 0 0 1 -6 -6 v-58 z"/>
  </g>
  <!-- EnOcean radio waves emanating toward the house + transmitter dot -->
  <g fill="none" stroke="#FFFFFF" stroke-width="12" stroke-linecap="round" opacity="0.96">
    <path d="M78 150 a44 44 0 0 1 0 -60"/>
    <path d="M58 168 a72 72 0 0 0 0 -96" opacity="0.75"/>
    <path d="M38 186 a100 100 0 0 0 0 -132" opacity="0.5"/>
  </g>
  <circle cx="96" cy="120" r="13" fill="#FFFFFF"/>
</svg>
