<svg xmlns="http://www.w3.org/2000/svg" width="760" height="240" viewBox="0 0 760 240">
  <defs>
    <linearGradient id="bg" x1="0" y1="0" x2="1" y2="1">
      <stop offset="0" stop-color="#1C6DD0"/>
      <stop offset="1" stop-color="#17B0A0"/>
    </linearGradient>
  </defs>
  <!-- icon badge -->
  <rect x="20" y="20" width="200" height="200" rx="44" fill="url(#bg)"/>
  <g transform="translate(20,20) scale(0.78125)" >
    <g fill="none" stroke="#FFFFFF" stroke-width="12" stroke-linejoin="round" stroke-linecap="round">
      <path d="M150 96 l40 34 v58 a6 6 0 0 1 -6 6 h-68 a6 6 0 0 1 -6 -6 v-58 z"/>
    </g>
    <g fill="none" stroke="#FFFFFF" stroke-width="12" stroke-linecap="round">
      <path d="M78 150 a44 44 0 0 1 0 -60"/>
      <path d="M58 168 a72 72 0 0 0 0 -96" opacity="0.75"/>
      <path d="M38 186 a100 100 0 0 0 0 -132" opacity="0.5"/>
    </g>
    <circle cx="96" cy="120" r="13" fill="#FFFFFF"/>
  </g>
  <!-- wordmark -->
  <text x="252" y="112" font-family="DejaVu Sans, Helvetica, Arial, sans-serif" font-size="52" font-weight="700" fill="#12324f">EnOcean MQTT</text>
  <text x="254" y="162" font-family="DejaVu Sans, Helvetica, Arial, sans-serif" font-size="30" font-weight="400" fill="#3a6b7d">for Home Assistant</text>
  <text x="254" y="200" font-family="DejaVu Sans, Helvetica, Arial, sans-serif" font-size="20" font-weight="400" fill="#8a9b101" opacity="0.0">.</text>
</svg>
